HIERARCHY
ROOT Hips
{
	OFFSET 0.00000 0.00000 0.00000
	CHANNELS 6 Xposition Yposition Zposition Yrotation Zrotation Xrotation 
	JOINT Lumbar
	{
		OFFSET 0 0 0
		CHANNELS 3 Zrotation Xrotation Yrotation
		JOINT Neck
		{
			OFFSET 0.00 0.2701 0.00
			CHANNELS 3 Zrotation Xrotation Yrotation
			End Site
			{
				OFFSET 0.00 0.1379 0.00
			}
		}
		JOINT RightShoulder
		{
			OFFSET 0.0119 0.2289 0.1181
			CHANNELS 3 Zrotation Xrotation Yrotation
			JOINT RightElbow
			{
				OFFSET 0.00 -0.1475 0.00
				CHANNELS 2 Zrotation Yrotation
				JOINT RightWrist
				{
					OFFSET 0.00 -0.1605 0.00
					CHANNELS 2 Zrotation Xrotation
					End Site
					{
						OFFSET 0.0040 -0.1068 0.0006
					}
				}
			}
		}
		JOINT LeftShoulder
		{
			OFFSET 0.0119 0.2289 -0.1181
			CHANNELS 3 Zrotation Xrotation Yrotation
			JOINT LeftElbow
			{
				OFFSET 0.00 -0.1475 0.00
				CHANNELS 2 Zrotation Yrotation
				JOINT LeftWrist
				{
					OFFSET 0.00 -0.1605 0.00
					CHANNELS 2 Zrotation Xrotation
					End Site
					{
						OFFSET 0.0040 -0.1068 -0.0006
					}
				}
			}
		}
	}
	JOINT RightHip
	{
		OFFSET 0.0316 -0.0424 0.0458
		CHANNELS 3 Zrotation Xrotation Yrotation
		JOINT RightKnee
		{
			OFFSET 0.00 -0.2438 0.00
			CHANNELS 1 Zrotation
			JOINT RightAnkle
			{
				OFFSET 0.00 -0.2449 0.00
				CHANNELS 3 Zrotation Xrotation Yrotation
				End Site
				{
					OFFSET 0.1237 -0.0542 0.0051
				}
			}
		}
	}
	JOINT LeftHip
	{
		OFFSET 0.0316 -0.0424 -0.0458
		CHANNELS 3 Zrotation Xrotation Yrotation
		JOINT LeftKnee
		{
			OFFSET 0.00 -0.2438 0.00
			CHANNELS 1 Zrotation
			JOINT LeftAnkle
			{
				OFFSET 0.00 -0.2449 0.00
				CHANNELS 3 Zrotation Xrotation Yrotation
				End Site
				{
					OFFSET 0.1237 -0.0542 -0.0051
				}
			}
		}
	}
}
MOTION
Frames: 31
Frame Time: 0.02
-0.00071 3e-05 -0.00016 179.63469 -33.47806 -2.96184 41.96121 2.58859 -6.00024 -13.22052 -0.75499 -0.4152 75.90296 -98.89975 64.17193 6.43177 97.78293 11.33716 0.84989 45.46772 99.24424 -64.17059 7.9952 -88.55967 6.99445 1.02363 38.15812 -4.21124 -10.93585 -22.47461 -6.8674 -3.23464 -2.33006 42.43988 6.80393 -0.75942 -27.62777 -6.63939 2.82107 2.07473
-0.00089 2e-05 -0.00028 179.66442 -33.47985 -2.95363 41.96372 2.58215 -6.00721 -13.20998 -0.75234 -0.41544 75.56262 -98.94163 64.17173 6.48481 97.75311 11.3162 0.81673 45.36096 99.23622 -64.17059 8.00145 -88.54662 6.97118 1.03103 38.14727 -4.12177 -10.52535 -22.47313 -6.87757 -3.27629 -2.3556 42.42749 6.82658 -0.68873 -27.62774 -6.63817 2.80666 2.0677
-0.00106 1e-05 -0.0004 179.69402 -33.48161 -2.94545 41.96622 2.57572 -6.01414 -13.19947 -0.74967 -0.41569 75.22281 -98.98338 64.17152 6.53776 97.72336 11.29528 0.78362 45.25468 99.22819 -64.17059 8.00769 -88.53361 6.94798 1.03839 38.13643 -4.03254 -10.11599 -22.47165 -6.88772 -3.31783 -2.38107 42.41508 6.84916 -0.6183 -27.6277 -6.63696 2.79229 2.06069
-0.00124 1e-05 -0.00052 179.72365 -33.48338 -2.93727 41.96872 2.56929 -6.02109 -13.18896 -0.74702 -0.41593 74.88341 -99.02513 64.17132 6.59065 97.69363 11.27439 0.75055 45.14824 99.2202 -64.17058 8.01392 -88.52058 6.92478 1.04577 38.12561 -3.94334 -9.70674 -22.47017 -6.89786 -3.35936 -2.40653 42.40272 6.87174 -0.54784 -27.62767 -6.63575 2.77792 2.05368
-0.00141 -0 -0.00064 179.75342 -33.48519 -2.92906 41.97124 2.56285 -6.02811 -13.1784 -0.74439 -0.41618 74.54372 -99.067 64.17112 6.64358 97.66385 11.25347 0.71745 45.04137 99.21223 -64.17058 8.02014 -88.50753 6.90153 1.0532 38.11481 -3.85391 -9.29639 -22.46868 -6.90802 -3.40098 -2.43206 42.39039 6.8944 -0.4771 -27.62765 -6.63453 2.76349 2.04664
-0.00159 -1e-05 -0.00076 179.78268 -33.48684 -2.92093 41.97369 2.55646 -6.03482 -13.16802 -0.74163 -0.41643 74.20372 -99.10853 64.17092 6.69658 97.63415 11.23255 0.68433 44.93638 99.20409 -64.17058 8.02642 -88.49462 6.87846 1.06039 38.10388 -3.76512 -8.88913 -22.46724 -6.91813 -3.44237 -2.4574 42.37782 6.91682 -0.40731 -27.62759 -6.63331 2.74924 2.03971
-0.00176 -2e-05 -0.00088 179.81293 -33.4888 -2.91265 41.97627 2.54996 -6.04214 -13.15728 -0.73913 -0.41667 73.86459 -99.15068 64.17071 6.74938 97.60432 11.21165 0.65128 44.82749 99.19632 -64.17058 8.0326 -88.48139 6.855 1.06806 38.0932 -3.67514 -8.47613 -22.46571 -6.92835 -3.48418 -2.48309 42.36574 6.93969 -0.3357 -27.6276 -6.63211 2.73467 2.03256
-0.00194 -2e-05 -0.001 179.84227 -33.49049 -2.90451 41.97874 2.54356 -6.04892 -13.14687 -0.7364 -0.41692 73.52487 -99.19225 64.17051 6.80236 97.57462 11.19075 0.61818 44.72262 99.18814 -64.17058 8.03884 -88.46856 6.83197 1.07529 38.08231 -3.58626 -8.0684 -22.46425 -6.93846 -3.5256 -2.50846 42.35323 6.96214 -0.26576 -27.62755 -6.63089 2.72038 2.02561
-0.00211 -3e-05 -0.00112 179.87048 -33.4918 -2.89654 41.98104 2.53731 -6.05498 -13.13688 -0.73334 -0.41716 73.18335 -99.23318 64.17031 6.85563 97.54503 11.16976 0.58493 44.62098 99.17974 -64.17058 8.04527 -88.4558 6.80918 1.08197 38.07108 -3.49868 -7.667 -22.46289 -6.94846 -3.56659 -2.53347 42.34009 6.9841 -0.19789 -27.6274 -6.62965 2.70645 2.0189
-0.00229 -4e-05 -0.00124 179.90513 -33.49515 -2.8876 41.98421 2.53026 -6.06499 -13.12455 -0.73206 -0.41741 72.84894 -99.27802 64.17009 6.90743 97.51464 11.149 0.55228 44.49569 99.17344 -64.17058 8.05095 -88.44137 6.78416 1.0918 38.06158 -3.40346 -7.2288 -22.46101 -6.95915 -3.61019 -2.56062 42.33024 7.00893 -0.11819 -27.62776 -6.62855 2.69049 2.01082
-0.00245 -5e-05 -0.00135 179.92625 -33.4943 -2.8807 41.98563 2.52488 -6.06677 -13.1171 -0.72709 -0.41765 72.50168 -99.31446 64.16992 6.96222 97.48604 11.12795 0.51852 44.42349 99.16221 -64.17058 8.05802 -88.43125 6.7644 1.09499 38.04857 -3.32448 -6.86855 -22.46022 -6.96835 -3.64818 -2.58321 42.31367 7.02767 -0.06338 -27.62707 -6.62714 2.67882 2.00562
-0.00259 -6e-05 -0.00141 179.90922 -33.48083 -2.87945 41.98142 2.52424 -6.04489 -13.1236 -0.71139 -0.41782 72.10135 -99.32899 64.1699 7.0263 97.46168 11.10462 0.48062 44.47283 99.14126 -64.17058 8.07058 -88.42973 6.75439 1.08026 38.02459 -3.28955 -6.72193 -22.46238 -6.97363 -3.67137 -2.59343 42.27684 7.02999 -0.07786 -27.62327 -6.62484 2.67906 2.00861
-0.00272 -7e-05 -0.00146 179.87878 -33.46334 -2.88024 41.97561 2.52523 -6.01494 -13.13491 -0.69207 -0.41796 71.69176 -99.33489 64.16994 7.09317 97.43928 11.08131 0.44186 44.58026 99.11468 -64.17058 8.08437 -88.43516 6.75042 1.05912 37.99733 -3.27105 -6.65378 -22.46563 -6.97738 -3.6888 -2.59903 42.23359 7.02616 -0.11707 -27.61845 -6.62223 2.6836 2.01445
-0.00285 -7e-05 -0.00151 179.85516 -33.44841 -2.88004 41.97106 2.52538 -5.98943 -13.14366 -0.67484 -0.41812 71.29758 -99.34404 64.16995 7.15805 97.41637 11.05892 0.40418 44.67646 99.08816 -64.17059 8.09632 -88.437 6.74688 1.04032 37.97246 -3.24534 -6.54974 -22.4684 -6.98173 -3.70849 -2.60668 42.19447 7.02495 -0.14437 -27.61423 -6.61981 2.6861 2.01884
-0.00299 -8e-05 -0.00157 179.8285 -33.43039 -2.8801 41.96426 2.52599 -5.96072 -13.15401 -0.65584 -0.41828 70.85466 -99.35605 64.16996 7.22602 97.39168 11.03248 0.36344 44.70748 99.0721 -64.17059 8.1131 -88.43245 6.7304 1.02264 37.94378 -3.21846 -6.44625 -22.47111 -6.9865 -3.72972 -2.61458 42.15025 7.02442 -0.17482 -27.60941 -6.61719 2.68896 2.02389
-0.00311 -9e-05 -0.0016 179.80491 -33.41784 -2.88011 41.96175 2.52599 -5.93668 -13.16217 -0.63952 -0.41842 70.51287 -99.36001 64.16998 7.28817 97.37138 11.01464 0.32906 44.88962 99.03302 -64.1706 8.12081 -88.45318 6.74176 1.00274 37.92225 -3.19807 -6.36091 -22.47421 -6.99001 -3.74631 -2.62081 42.11511 7.02107 -0.20422 -27.60561 -6.61491 2.69209 2.02824
-0.0032 -0.0001 -0.00159 179.79365 -33.42167 -2.87926 41.9716 2.52399 -5.9283 -13.16292 -0.63276 -0.41851 70.43832 -99.34408 64.16999 7.33451 97.36126 11.01985 0.31069 45.46235 98.9308 -64.17061 8.09756 -88.44948 6.83344 0.96363 37.92157 -3.19014 -6.29997 -22.47805 -6.99065 -3.7521 -2.62392 42.10692 7.01085 -0.22746 -27.60479 -6.61363 2.69498 2.02994
-0.00326 -0.0001 -0.00155 179.78581 -33.4311 -2.87832 41.98581 2.52127 -5.92474 -13.16138 -0.62857 -0.41857 70.46921 -99.3203 64.16998 7.37511 97.35617 11.03423 0.29894 46.18827 98.80574 -64.1706 8.06635 -88.48533 6.95223 0.92477 37.92818 -3.18838 -6.25552 -22.48223 -6.99005 -3.75333 -2.62545 42.10803 6.99815 -0.24811 -27.60505 -6.61269 2.69796 2.03081
-0.00334 -0.00011 -0.00152 179.77606 -33.43781 -2.87756 41.99796 2.51882 -5.91845 -13.16099 -0.62237 -0.41865 70.46037 -99.29995 64.17006 7.41725 97.34919 11.04439 0.28548 46.85123 98.69182 -64.17069 8.04224 -88.56748 7.05515 0.896 37.93126 -3.18477 -6.20809 -22.48627 -6.98987 -3.75625 -2.62744 42.10469 6.98693 -0.26832 -27.60486 -6.61157 2.70093 2.0321
-0.00341 -0.00011 -0.00149 179.76745 -33.44514 -2.87629 42.01036 2.51671 -5.91417 -13.16017 -0.61963 -0.41872 70.41393 -99.27984 64.16998 7.46241 97.33889 11.05319 0.26708 47.48485 98.57469 -64.17059 8.00277 -88.39055 7.17244 0.82588 37.93507 -3.17787 -6.14539 -22.4903 -6.9902 -3.7605 -2.63031 42.10209 6.97386 -0.29684 -27.60444 -6.61056 2.70409 2.03339
-0.00348 -0.00011 -0.00145 179.7573 -33.45254 -2.87604 42.02333 2.51367 -5.90696 -13.1598 -0.6103 -0.4188 70.47434 -99.25752 64.17 7.50185 97.33883 11.06898 0.25984 48.21927 98.45863 -64.17063 7.99428 -88.74746 7.26718 0.83959 37.93922 -3.17887 -6.11607 -22.49443 -6.98925 -3.76108 -2.6311 42.10023 6.96429 -0.30632 -27.60479 -6.60941 2.70664 2.03435
-0.00353 -0.00012 -0.00136 179.74329 -33.45879 -2.87861 42.03643 2.5085 -5.89052 -13.15997 -0.58262 -0.41889 70.7746 -99.23166 64.17033 7.51404 97.34603 11.09289 0.28762 49.15743 98.35183 -64.17109 8.06426 -90.69552 7.28386 1.10621 37.94187 -3.202 -6.18621 -22.49856 -6.9846 -3.75172 -2.62588 42.09816 6.96365 -0.27069 -27.60692 -6.60781 2.70887 2.0353
-0.00358 -0.00013 -0.00126 179.72737 -33.46494 -2.8822 42.05005 2.50233 -5.87104 -13.16102 -0.54819 -0.419 71.18376 -99.20434 64.1694 7.52583 97.36618 11.13068 0.32503 50.19686 98.24576 -64.17016 8.16648 -93.1537 7.2784 1.45368 37.9448 -3.23251 -6.287 -22.50282 -6.9788 -3.73902 -2.61874 42.09655 6.96688 -0.2146 -27.60981 -6.60607 2.71021 2.03578
-0.00363 -0.00014 -0.00116 179.71167 -33.4711 -2.88534 42.06361 2.49649 -5.8529 -13.16231 -0.51655 -0.41911 71.56309 -99.17662 64.17076 7.54268 97.39444 11.16102 0.35458 51.21589 98.14022 -64.17176 8.261 -95.29784 7.28931 1.74945 37.94801 -3.25829 -6.36581 -22.50712 -6.97383 -3.72852 -2.61292 42.09472 6.96926 -0.16332 -27.61244 -6.60438 2.71103 2.03597
-0.00368 -0.00015 -0.00106 179.69909 -33.47752 -2.88847 42.07643 2.49131 -5.83487 -13.16028 -0.48603 -0.41919 71.86532 -99.15084 64.17048 7.52734 97.3673 11.174 0.40024 52.13833 98.03447 -64.17157 8.32958 -97.79894 7.27532 2.10636 37.94957 -3.28989 -6.47878 -22.51093 -6.96751 -3.71504 -2.6052 42.09319 6.96778 -0.13096 -27.61475 -6.60272 2.71576 2.03825
-0.00373 -0.00015 -0.00095 179.67919 -33.48338 -2.8918 42.09106 2.48432 -5.81609 -13.16611 -0.45171 -0.41934 72.34983 -99.12366 64.1663 7.59331 97.45416 11.25453 0.41309 53.27622 97.92433 -64.16696 8.45529 -99.66654 7.30658 2.35762 37.95476 -3.3113 -6.52826 -22.51587 -6.96374 -3.70696 -2.60095 42.09112 6.97519 -0.05428 -27.61788 -6.601 2.71216 2.0361
-0.00376 -0.00015 -0.0008 179.64222 -33.48691 -2.89616 42.10856 2.47443 -5.79361 -13.18756 -0.40718 -0.41964 73.29541 -99.05634 64.17892 7.76413 97.88859 11.25733 0.34613 55.01216 97.84321 -64.18096 8.78093 -99.75784 7.47511 2.27378 37.96778 -3.30043 -6.38943 -22.5231 -6.96751 -3.71511 -2.60725 42.08662 7.00702 0.13884 -27.62334 -6.59895 2.68541 2.02171
-0.00379 -0.00015 -0.00064 179.59741 -33.48994 -2.9006 42.12817 2.46239 -5.77089 -13.21809 -0.35931 -0.42002 74.39584 -98.98621 64.16 8.04075 98.42924 11.36283 0.24394 56.92899 97.74728 -64.15963 9.16061 -99.18089 7.68736 2.08364 37.98472 -3.27945 -6.18668 -22.53157 -6.97386 -3.7287 -2.61702 42.08164 7.0475 0.37577 -27.62955 -6.59689 2.6504 2.00292
-0.00381 -0.00015 -0.00048 179.5545 -33.49376 -2.9045 42.14815 2.45014 -5.74979 -13.24826 -0.31385 -0.42037 75.46964 -98.95208 64.16625 8.34552 98.89935 11.60942 0.1484 58.77756 97.6346 -64.16655 9.47393 -98.83874 7.87639 1.95965 38.00127 -3.26461 -6.01659 -22.53999 -6.97892 -3.73949 -2.62492 42.07742 7.08355 0.59357 -27.63525 -6.59499 2.61938 1.98621
-0.00385 -0.00015 -0.00033 179.51873 -33.49543 -2.91039 42.16271 2.44294 -5.7222 -13.26224 -0.26434 -0.42068 76.47439 -98.80562 64.21927 8.32201 99.46939 11.11905 0.09015 60.67951 97.63233 -64.22558 9.93628 -98.78324 8.08353 1.76971 38.01221 -3.24355 -5.83195 -22.54634 -6.98446 -3.75166 -2.63405 42.0711 7.12194 0.80984 -27.64169 -6.59243 2.58726 1.96908
-0.00386 -0.00015 -0.00016 179.46602 -33.50119 -2.91234 42.18883 2.42463 -5.70812 -13.31248 -0.22262 -0.42108 77.51813 -98.84941 64.05132 9.01545 99.84949 12.11859 -0.05106 62.37564 97.38245 -64.03774 10.13647 -97.99294 8.25769 1.68264 38.03546 -3.23289 -5.66251 -22.55717 -6.98959 -3.76217 -2.64139 42.06881 7.15734 1.03813 -27.64676 -6.59122 2.55558 1.95187
